<svg xmlns="http://www.w3.org/2000/svg" viewBox="0 0 273.1 308.11"><defs><style>.cls-1,.cls-2{fill:#fff;}.cls-2{font-size:41px;font-family:Montserrat-ExtraBold, Montserrat;font-weight:800;}.cls-2,.cls-7{letter-spacing:0.15em;}.cls-3{letter-spacing:0.14em;}.cls-4{letter-spacing:0.12em;}.cls-5{letter-spacing:0.15em;}.cls-6{letter-spacing:0.14em;}</style></defs><g id="OBJECTS"><path class="cls-1" d="M234,251.87c-7.91-9.78-18.36-17.17-27-26.33s-15.59-21.25-13.91-33.72A17.63,17.63,0,0,0,182,205.13c-1,6.16.54,12.51,3.26,18.12a77.78,77.78,0,0,0,8.29,12.85,4.38,4.38,0,0,1,0,5.27l0,.06a4.38,4.38,0,0,1-5.91,1c-11.69-7.75-23.32-14.73-35.58-21.74-6-3.43-12.83-6.83-19.52-7-2.89-.08-3.88,3.88-1.39,5.35l46.66,27.39-56-26.41a3.5,3.5,0,0,0-4.36,1.11l0,0a3.56,3.56,0,0,0,1.07,5.13l48.78,28.64-47.94-22.62a4,4,0,0,0-5.79,3.82v.08a3.92,3.92,0,0,0,2,3l41.22,24.21-36.24-17.1a2,2,0,0,0-2.6,2.91,38.59,38.59,0,0,0,11.74,12c8.84,5.8,19.44,8.31,30,9.53s21.12,1.26,31.61,2.63c17.83,2.34,36.37,3.8,51.59,13.41C247.11,275.06,241.94,261.65,234,251.87Z" transform="translate(-113.45 -83.08)"/><path class="cls-1" d="M241,289.2c-13-7.21-28.62-8-43.52-7.56s-30,2-44.57-1.19c3.84,6.6,11.25,11,18.68,12.78s15.23,1.24,22.78,0,15-3.1,22.54-4.09S233.72,286.79,241,289.2Z" transform="translate(-113.45 -83.08)"/><path class="cls-1" d="M266,251.87c7.91-9.78,18.36-17.17,27-26.33s15.59-21.25,13.91-33.72A17.63,17.63,0,0,1,318,205.13c1,6.16-.54,12.51-3.26,18.12a77.78,77.78,0,0,1-8.29,12.85,4.38,4.38,0,0,0,0,5.27l.05.06a4.38,4.38,0,0,0,5.91,1c11.69-7.75,23.32-14.73,35.58-21.74,6-3.43,12.83-6.83,19.52-7,2.89-.08,3.88,3.88,1.39,5.35l-46.66,27.39,56-26.41a3.5,3.5,0,0,1,4.36,1.11l0,0a3.56,3.56,0,0,1-1.07,5.13l-48.78,28.64,47.94-22.62a4,4,0,0,1,5.79,3.82v.08a3.92,3.92,0,0,1-2,3l-41.22,24.21,36.24-17.1a2,2,0,0,1,2.6,2.91,38.59,38.59,0,0,1-11.74,12c-8.84,5.8-19.44,8.31-29.95,9.53s-21.12,1.26-31.61,2.63c-17.83,2.34-36.37,3.8-51.59,13.41C252.89,275.06,258.06,261.65,266,251.87Z" transform="translate(-113.45 -83.08)"/><path class="cls-1" d="M259,289.2c13-7.21,28.62-8,43.52-7.56s30,2,44.57-1.19c-3.84,6.6-11.25,11-18.68,12.78s-15.23,1.24-22.78,0-15-3.1-22.54-4.09S266.28,286.79,259,289.2Z" transform="translate(-113.45 -83.08)"/><path class="cls-1" d="M148.71,354.9l1.9,3.62a2.54,2.54,0,0,0,1.81,1.32l4,.69a2.52,2.52,0,0,1,1.38,4.24L155,367.7a2.57,2.57,0,0,0-.69,2.13l.59,4a2.52,2.52,0,0,1-3.61,2.63l-3.67-1.81a2.5,2.5,0,0,0-2.23,0l-3.67,1.81a2.52,2.52,0,0,1-3.61-2.63l.58-4a2.51,2.51,0,0,0-.69-2.13l-2.85-2.93a2.52,2.52,0,0,1,1.38-4.24l4-.69a2.56,2.56,0,0,0,1.81-1.32l1.9-3.62A2.53,2.53,0,0,1,148.71,354.9Z" transform="translate(-113.45 -83.08)"/><path class="cls-1" d="M349.37,352.27l1.9,3.62a2.54,2.54,0,0,0,1.81,1.32l4,.69a2.52,2.52,0,0,1,1.38,4.25l-2.86,2.92a2.57,2.57,0,0,0-.69,2.13l.59,4a2.52,2.52,0,0,1-3.61,2.63l-3.67-1.81a2.5,2.5,0,0,0-2.23,0l-3.67,1.81a2.52,2.52,0,0,1-3.61-2.63l.58-4a2.51,2.51,0,0,0-.69-2.13l-2.85-2.92a2.52,2.52,0,0,1,1.38-4.25l4-.69a2.56,2.56,0,0,0,1.81-1.32l1.9-3.62A2.53,2.53,0,0,1,349.37,352.27Z" transform="translate(-113.45 -83.08)"/><path class="cls-1" d="M254.76,160.63l4.06,7.72a5.39,5.39,0,0,0,3.86,2.8l8.59,1.47a5.39,5.39,0,0,1,3,9.06l-6.09,6.25a5.38,5.38,0,0,0-1.47,4.53l1.25,8.63a5.38,5.38,0,0,1-7.71,5.6l-7.82-3.86a5.38,5.38,0,0,0-4.76,0l-7.82,3.86a5.38,5.38,0,0,1-7.71-5.6l1.25-8.63a5.38,5.38,0,0,0-1.47-4.53l-6.08-6.25a5.38,5.38,0,0,1,2.94-9.06l8.59-1.47a5.39,5.39,0,0,0,3.86-2.8l4.06-7.72A5.37,5.37,0,0,1,254.76,160.63Z" transform="translate(-113.45 -83.08)"/><path class="cls-1" d="M146.73,201.15a3.4,3.4,0,0,1-1.12,2.45,3.72,3.72,0,0,1-2.8.7l-4.8-.38.07-.89,4.76.38a3.11,3.11,0,0,0,2.25-.49,2.49,2.49,0,0,0,.85-1.83,2.46,2.46,0,0,0-.55-2,3.07,3.07,0,0,0-2.13-.85l-4.76-.38.06-.86,4.8.38a3.75,3.75,0,0,1,2.66,1.14A3.4,3.4,0,0,1,146.73,201.15Z" transform="translate(-113.45 -83.08)"/><path class="cls-1" d="M147.51,193.46l-8.25-1.58.14-.72,8.25-4.32-.07.37-7.17-1.36.17-.86,8.25,1.57-.14.72-8.25,4.31.07-.37,7.17,1.36Z" transform="translate(-113.45 -83.08)"/><path class="cls-1" d="M149.94,182.3,141.87,180l.25-.86,8.07,2.36Z" transform="translate(-113.45 -83.08)"/><path class="cls-1" d="M152.18,175.08l-9.16.71.32-.91,8.61-.64-.17.5-6.29-5.94.3-.85,6.68,6.31Z" transform="translate(-113.45 -83.08)"/><path class="cls-1" d="M154.52,167l2.12-4.58.7.32-2.49,5.39-7.63-3.52,2.42-5.23.7.32-2.05,4.42ZM151,165.47l1.87-4,.68.32-1.86,4Z" transform="translate(-113.45 -83.08)"/><path class="cls-1" d="M159.07,159.46l-7.25-4.25,1.59-2.71a4.64,4.64,0,0,1,1.22-1.41,2.62,2.62,0,0,1,1.45-.52,3,3,0,0,1,2.66,1.55,2.69,2.69,0,0,1,.25,1.52,4.47,4.47,0,0,1-.63,1.76L157,157.69l-.15-.55,2.65,1.55Zm-2.14-2.28-.56.13L157.7,155a3,3,0,0,0,.49-1.93,2.17,2.17,0,0,0-2.69-1.57,2.92,2.92,0,0,0-1.44,1.37l-1.33,2.27-.16-.56Zm5-2.67-3.72.32.48-.83,3.73-.33Z" transform="translate(-113.45 -83.08)"/><path class="cls-1" d="M165.89,148.85a5.26,5.26,0,0,1-1.3,1.28,3.43,3.43,0,0,1-1.41.62l-.35-.68a3.56,3.56,0,0,0,1.28-.55,4.22,4.22,0,0,0,1.16-1.11,3.34,3.34,0,0,0,.59-1.16,1.56,1.56,0,0,0,0-.91,1.31,1.31,0,0,0-.47-.62,1.08,1.08,0,0,0-.81-.23,1.83,1.83,0,0,0-.81.32,8.53,8.53,0,0,0-.84.64c-.28.25-.58.49-.87.73a4.92,4.92,0,0,1-.92.59,2.11,2.11,0,0,1-1,.21,1.89,1.89,0,0,1-1-.4,2.07,2.07,0,0,1-.74-.94,2.37,2.37,0,0,1-.09-1.31,4.05,4.05,0,0,1,.77-1.61,5,5,0,0,1,1-1,4.05,4.05,0,0,1,1.14-.66l.4.66a4,4,0,0,0-1.1.62,4.36,4.36,0,0,0-.82.85,3.38,3.38,0,0,0-.56,1.13,1.54,1.54,0,0,0,0,.91,1.29,1.29,0,0,0,.49.64,1.16,1.16,0,0,0,.81.24,2,2,0,0,0,.81-.33c.27-.19.55-.4.84-.65s.58-.49.87-.72a5.11,5.11,0,0,1,.92-.59,2,2,0,0,1,1-.22,1.82,1.82,0,0,1,1,.39,2,2,0,0,1,.73.94,2.32,2.32,0,0,1,.08,1.32A4.08,4.08,0,0,1,165.89,148.85Z" transform="translate(-113.45 -83.08)"/><path class="cls-1" d="M169.94,143.47l-6.46-5.37.57-.68,6.46,5.37Z" transform="translate(-113.45 -83.08)"/><path class="cls-1" d="M174.51,138.28,169,133l-2,2.14-.56-.53,4.68-4.92.56.53-2,2.14,5.53,5.26Z" transform="translate(-113.45 -83.08)"/><path class="cls-1" d="M179.55,132.23l3.79-3.34.51.58-4.46,3.93-5.55-6.3,4.32-3.81.51.57L175,127.08Zm-2.63-2.84,3.33-2.94.5.57L177.42,130Z" transform="translate(-113.45 -83.08)"/><path class="cls-1" d="M190.67,124.27l-4.56-7,2.87-1.86a5.08,5.08,0,0,1,2.27-.83,3.88,3.88,0,0,1,2.13.39,4.51,4.51,0,0,1,2.37,3.66,3.87,3.87,0,0,1-.52,2.11,5,5,0,0,1-1.69,1.73Zm.33-1.12,2.09-1.35a4.26,4.26,0,0,0,1.39-1.42,3.29,3.29,0,0,0,.41-1.72,3.57,3.57,0,0,0-.58-1.74,3.44,3.44,0,0,0-1.36-1.25,3.18,3.18,0,0,0-1.73-.32,4,4,0,0,0-1.86.68l-2.09,1.35Z" transform="translate(-113.45 -83.08)"/><path class="cls-1" d="M203.77,116.65a4.71,4.71,0,0,1-1.71.5,4.14,4.14,0,0,1-3.09-1,4.59,4.59,0,0,1-1.52-3,4.14,4.14,0,0,1,1.07-3A4.75,4.75,0,0,1,200,109a4.53,4.53,0,0,1,1.71-.5,4.16,4.16,0,0,1,1.65.17,4.31,4.31,0,0,1,1.43.8,4.46,4.46,0,0,1,1.06,1.38,4.32,4.32,0,0,1,.46,1.67,4.08,4.08,0,0,1-.22,1.63,4.23,4.23,0,0,1-.85,1.42A4.59,4.59,0,0,1,203.77,116.65Zm-.35-.71a3.65,3.65,0,0,0,1.14-.86,3.25,3.25,0,0,0,.67-1.15,3.7,3.7,0,0,0-1.07-3.8,3.5,3.5,0,0,0-1.16-.65,3.08,3.08,0,0,0-1.32-.16,3.88,3.88,0,0,0-1.37.39,3.81,3.81,0,0,0-1.14.86,3.34,3.34,0,0,0-.68,1.16,3.29,3.29,0,0,0-.17,1.32,3.71,3.71,0,0,0,1.23,2.47,3.23,3.23,0,0,0,1.16.67,3.36,3.36,0,0,0,1.34.15A3.7,3.7,0,0,0,203.42,115.94Z" transform="translate(-113.45 -83.08)"/><path class="cls-1" d="M211,113.25l-2.9-7.88.69-.26,8,4.85-.36.13-2.53-6.85.83-.3,2.9,7.88-.69.26-8-4.85.36-.13,2.53,6.84Z" transform="translate(-113.45 -83.08)"/><path class="cls-1" d="M226.42,108.34l-1.66-8.23,3.55-.72a3.57,3.57,0,0,1,2.24.12,1.85,1.85,0,0,1,1.08,1.41,1.91,1.91,0,0,1-.79,2.06,3.13,3.13,0,0,1-1.12.47l.14-.33a3.75,3.75,0,0,1,1.41,0,1.94,1.94,0,0,1,1,.54,2.13,2.13,0,0,1,.56,1.12,2,2,0,0,1-.44,1.77,4,4,0,0,1-2.21,1Zm.73-.9,2.9-.58a3.18,3.18,0,0,0,1.59-.71,1.34,1.34,0,0,0,.33-1.3,1.32,1.32,0,0,0-.81-1,3.17,3.17,0,0,0-1.73,0l-3,.61-.15-.72,2.72-.55a2.77,2.77,0,0,0,1.46-.68,1.46,1.46,0,0,0-.46-2.25,2.75,2.75,0,0,0-1.61,0l-2.62.53Z" transform="translate(-113.45 -83.08)"/><path class="cls-1" d="M240.56,106.17a5,5,0,0,1-1.78-.16,4.1,4.1,0,0,1-1.48-.77,4.26,4.26,0,0,1-1.05-1.26,4.16,4.16,0,0,1-.48-1.67,4.27,4.27,0,0,1,.17-1.72,4.12,4.12,0,0,1,.8-1.43,4.31,4.31,0,0,1,1.31-1,5.13,5.13,0,0,1,3.5-.32,4.31,4.31,0,0,1,1.47.77,4,4,0,0,1,1,1.26,4.56,4.56,0,0,1,.48,1.67,4.32,4.32,0,0,1-.17,1.73,4.16,4.16,0,0,1-2.11,2.45A4.77,4.77,0,0,1,240.56,106.17Zm-.08-.79a3.82,3.82,0,0,0,1.37-.39,3.28,3.28,0,0,0,1.05-.83,3.48,3.48,0,0,0,.63-1.17,3.58,3.58,0,0,0,.14-1.4,3.77,3.77,0,0,0-.39-1.36,3.65,3.65,0,0,0-.84-1,3.34,3.34,0,0,0-1.18-.62,3.47,3.47,0,0,0-1.41-.13,3.72,3.72,0,0,0-1.38.38,3.42,3.42,0,0,0-1.05.83,3.35,3.35,0,0,0-.64,1.17,3.43,3.43,0,0,0-.14,1.41,3.66,3.66,0,0,0,.39,1.34,3.16,3.16,0,0,0,.84,1,3.33,3.33,0,0,0,1.19.63A3.93,3.93,0,0,0,240.48,105.38Z" transform="translate(-113.45 -83.08)"/><path class="cls-1" d="M250.87,105.74a5.4,5.4,0,0,1-1.79-.32,3.49,3.49,0,0,1-1.32-.8l.35-.68a3.61,3.61,0,0,0,1.19.74,4.23,4.23,0,0,0,1.58.3,3.4,3.4,0,0,0,1.29-.18,1.63,1.63,0,0,0,.74-.53,1.31,1.31,0,0,0,.24-.74,1.13,1.13,0,0,0-.28-.8,1.94,1.94,0,0,0-.73-.48,7.56,7.56,0,0,0-1-.31l-1.1-.29a4.56,4.56,0,0,1-1-.42,2.17,2.17,0,0,1-.74-.67,2,2,0,0,1-.27-1.09,2.2,2.2,0,0,1,.34-1.14,2.37,2.37,0,0,1,1-.83,4.12,4.12,0,0,1,1.76-.3,4.8,4.8,0,0,1,1.4.21,4.16,4.16,0,0,1,1.2.56l-.31.7a4.25,4.25,0,0,0-1.14-.54,4.89,4.89,0,0,0-1.17-.18,3.24,3.24,0,0,0-1.25.2,1.54,1.54,0,0,0-.73.54,1.28,1.28,0,0,0-.24.77,1.13,1.13,0,0,0,.27.79,2.06,2.06,0,0,0,.74.48c.31.11.65.22,1,.31l1.1.29a5,5,0,0,1,1,.42,1.89,1.89,0,0,1,.74.66,1.76,1.76,0,0,1,.27,1.07,2.1,2.1,0,0,1-.34,1.13,2.39,2.39,0,0,1-1,.83A4.14,4.14,0,0,1,250.87,105.74Z" transform="translate(-113.45 -83.08)"/><path class="cls-1" d="M261.18,106.35a4.54,4.54,0,0,1-1.71-.5,4.08,4.08,0,0,1-1.29-1,4.19,4.19,0,0,1-.78-1.44,4.5,4.5,0,0,1-.15-1.73,4.29,4.29,0,0,1,.5-1.66,4,4,0,0,1,1.06-1.25,4.14,4.14,0,0,1,1.48-.75,4.77,4.77,0,0,1,1.78-.14,4.68,4.68,0,0,1,1.67.48,3.5,3.5,0,0,1,1.26,1l-.62.51a3.14,3.14,0,0,0-1.06-.88,3.69,3.69,0,0,0-1.31-.37,3.91,3.91,0,0,0-1.42.11,3.27,3.27,0,0,0-1.2.62,3.39,3.39,0,0,0-.86,1,3.52,3.52,0,0,0,.35,3.93,3.3,3.3,0,0,0,1.05.84,3.92,3.92,0,0,0,2.73.3,3.16,3.16,0,0,0,1.21-.64l.51.62a3.7,3.7,0,0,1-1.45.78A4.84,4.84,0,0,1,261.18,106.35Z" transform="translate(-113.45 -83.08)"/><path class="cls-1" d="M271.12,107.93a4.79,4.79,0,0,1-1.66-.67,4,4,0,0,1-1.19-1.17,4.27,4.27,0,0,1-.62-1.51,4.53,4.53,0,0,1,.69-3.33,4.19,4.19,0,0,1,2.74-1.73,4.72,4.72,0,0,1,1.79,0,4.66,4.66,0,0,1,1.65.67,4.21,4.21,0,0,1,1.18,1.16,4.16,4.16,0,0,1,.63,1.52,4.22,4.22,0,0,1,0,1.73,4.29,4.29,0,0,1-.67,1.61,4,4,0,0,1-1.18,1.13,4.16,4.16,0,0,1-1.55.59A4.67,4.67,0,0,1,271.12,107.93Zm.16-.77a3.79,3.79,0,0,0,1.42,0,3.13,3.13,0,0,0,1.24-.49,3.33,3.33,0,0,0,.95-.92,3.67,3.67,0,0,0,.55-1.31,3.53,3.53,0,0,0,0-1.41,3.4,3.4,0,0,0-.5-1.23,3.12,3.12,0,0,0-.94-.94,3.56,3.56,0,0,0-1.31-.54,3.65,3.65,0,0,0-1.43,0,3.18,3.18,0,0,0-1.25.49,3.27,3.27,0,0,0-1,.93,3.44,3.44,0,0,0-.54,1.3,3.68,3.68,0,0,0,0,1.4,3.39,3.39,0,0,0,.51,1.24,3.19,3.19,0,0,0,.95,1A3.68,3.68,0,0,0,271.28,107.16Z" transform="translate(-113.45 -83.08)"/><path class="cls-1" d="M283.55,111.2l3-7.85,3.2,1.21a4.87,4.87,0,0,1,2,1.34,3.81,3.81,0,0,1,.95,1.94,4.46,4.46,0,0,1-1.55,4.09,3.92,3.92,0,0,1-2,.82,5,5,0,0,1-2.39-.33Zm1.1-.4,2.33.88a4.07,4.07,0,0,0,2,.28,3.26,3.26,0,0,0,1.63-.68,3.48,3.48,0,0,0,1.06-1.51,3.35,3.35,0,0,0,.2-1.83,3.15,3.15,0,0,0-.76-1.58,4.1,4.1,0,0,0-1.66-1.1l-2.32-.88Z" transform="translate(-113.45 -83.08)"/><path class="cls-1" d="M295.35,115.25l4.51,2.26-.34.69-5.31-2.67L298,108l5.14,2.58-.34.69-4.35-2.19Zm1.65-3.51,4,2-.34.68-4-2Z" transform="translate(-113.45 -83.08)"/><path class="cls-1" d="M306.88,122.63l4.75-6.93.73.5L308,122.5l3.88,2.66-.43.63Z" transform="translate(-113.45 -83.08)"/><path class="cls-1" d="M316.37,129.79a3.43,3.43,0,0,1-1.35-2.33,3.71,3.71,0,0,1,1.05-2.69l3.08-3.7.69.57-3.07,3.67a3.13,3.13,0,0,0-.89,2.12,2.91,2.91,0,0,0,2.92,2.43,3,3,0,0,0,1.92-1.25l3.07-3.67.66.56-3.09,3.69a3.69,3.69,0,0,1-2.46,1.51A3.4,3.4,0,0,1,316.37,129.79Z" transform="translate(-113.45 -83.08)"/><path class="cls-1" d="M322.21,134.89l6-5.85,2.52,2.61a3.63,3.63,0,0,1,1.11,2,1.83,1.83,0,0,1-.61,1.66,1.9,1.9,0,0,1-1,.57,1.92,1.92,0,0,1-1.11-.12,2.94,2.94,0,0,1-1-.69l.35-.06a3.66,3.66,0,0,1,.79,1.17,1.94,1.94,0,0,1,.1,1.16,2.06,2.06,0,0,1-.64,1.07A1.94,1.94,0,0,1,327,139a4,4,0,0,1-2.07-1.3Zm1.14.13,2.06,2.13a3.24,3.24,0,0,0,1.45.95,1.31,1.31,0,0,0,1.28-.42,1.29,1.29,0,0,0,.44-1.25,3.12,3.12,0,0,0-.9-1.48l-2.13-2.2.53-.51,1.93,2a2.67,2.67,0,0,0,1.36.86A1.44,1.44,0,0,0,331,133.5a2.75,2.75,0,0,0-.82-1.39l-1.86-1.92Z" transform="translate(-113.45 -83.08)"/><path class="cls-1" d="M331.48,145.38a3.38,3.38,0,0,1-.83-2.56,3.68,3.68,0,0,1,1.58-2.41l3.79-3,.55.7-3.76,2.94a3.15,3.15,0,0,0-1.32,1.89,2.89,2.89,0,0,0,2.35,3,3.09,3.09,0,0,0,2.14-.82l3.76-2.95.53.68-3.78,3a3.71,3.71,0,0,1-2.72,1A3.36,3.36,0,0,1,331.48,145.38Z" transform="translate(-113.45 -83.08)"/><path class="cls-1" d="M336.14,151.53l7.17-4.38.38.63-3.59,6.69-.2-.33,7.58-.17.38.62L340.69,159l-.44-.73,6-3.69.11.18-6.95.14-.22-.36,3.28-6.14.12.19-6,3.69Z" transform="translate(-113.45 -83.08)"/><path class="cls-1" d="M342.67,162.8l7.61-3.54,1.53,3.28a3.71,3.71,0,0,1,.41,2.21,1.88,1.88,0,0,1-1.12,1.38,1.9,1.9,0,0,1-2.19-.29,2.87,2.87,0,0,1-.72-1l.35.07a3.68,3.68,0,0,1,.36,1.36,2.07,2.07,0,0,1-.28,1.13,2.21,2.21,0,0,1-1,.8,1.94,1.94,0,0,1-1.83,0,3.88,3.88,0,0,1-1.53-1.9Zm1,.5L345,166a3.25,3.25,0,0,0,1.06,1.38,1.31,1.31,0,0,0,1.34,0,1.34,1.34,0,0,0,.84-1,3.18,3.18,0,0,0-.37-1.7l-1.3-2.77.67-.31,1.17,2.51a2.72,2.72,0,0,0,1,1.26,1.44,1.44,0,0,0,2.07-1,2.81,2.81,0,0,0-.32-1.58L350,160.37Z" transform="translate(-113.45 -83.08)"/><path class="cls-1" d="M346.52,171.3l9.19.87.29.82-6.67,6.39-.31-.88,6.29-5.93.12.35-8.61-.75Zm2.61.69h.77l1.6,4.62-.59.48Z" transform="translate(-113.45 -83.08)"/><path class="cls-1" d="M350.59,184.58a5.34,5.34,0,0,1-.13-1.82,3.36,3.36,0,0,1,.44-1.47l.75.17a3.53,3.53,0,0,0-.42,1.33,4.38,4.38,0,0,0,.09,1.61,3.76,3.76,0,0,0,.5,1.2,1.51,1.51,0,0,0,.7.58,1.22,1.22,0,0,0,.78,0,1.13,1.13,0,0,0,.7-.46,1.94,1.94,0,0,0,.28-.83,8.5,8.5,0,0,0,.06-1.05c0-.38,0-.76,0-1.14a4.15,4.15,0,0,1,.14-1.08,2.18,2.18,0,0,1,.47-.89,2,2,0,0,1,1-.53,2.1,2.1,0,0,1,1.19.05,2.34,2.34,0,0,1,1.06.78,4.21,4.21,0,0,1,.73,1.62,5.12,5.12,0,0,1,.14,1.41,4,4,0,0,1-.24,1.3l-.76-.12a3.84,3.84,0,0,0,.24-1.24,4.5,4.5,0,0,0-.12-1.18,3.29,3.29,0,0,0-.5-1.16,1.48,1.48,0,0,0-.7-.57,1.32,1.32,0,0,0-.81,0,1.07,1.07,0,0,0-.7.46,1.94,1.94,0,0,0-.28.83,9,9,0,0,0,0,1.06c0,.38,0,.76,0,1.13a4.69,4.69,0,0,1-.15,1.08,2,2,0,0,1-.46.88,1.82,1.82,0,0,1-1,.53,2,2,0,0,1-1.19-.06,2.3,2.3,0,0,1-1.06-.79A4.31,4.31,0,0,1,350.59,184.58Z" transform="translate(-113.45 -83.08)"/><path class="cls-1" d="M352.23,192l-.12-.88,8.31-1.2.13.88Zm9.07,4,.13.87-8.32,1.2-.12-.87Zm-4.46.73-.78-5.38.77-.11.78,5.38Z" transform="translate(-113.45 -83.08)"/><path class="cls-1" d="M353.44,202.4l8.38-.53.06.89-8.38.52Z" transform="translate(-113.45 -83.08)"/><path class="cls-1" d="M250,83.08A126.4,126.4,0,0,0,123.74,209.33v.06a2.9,2.9,0,0,0,2.91,2.89h1.19a2.91,2.91,0,0,0,2.9-2.92v0a119.26,119.26,0,0,1,238.51,0v0a2.91,2.91,0,0,0,2.91,2.92h1.19a2.89,2.89,0,0,0,2.9-2.89v-.06A126.4,126.4,0,0,0,250,83.08Z" transform="translate(-113.45 -83.08)"/></g><g id="TEXTS"><text class="cls-2" transform="translate(22.57 252.12)">PO<tspan class="cls-3" x="77.29" y="0">R</tspan><tspan class="cls-4" x="113.41" y="0">T</tspan><tspan class="cls-5" x="144.2" y="0">AIL</tspan><tspan class="cls-5"><tspan x="45.2" y="45">C</tspan><tspan class="cls-6" x="81.65" y="45">L</tspan><tspan class="cls-7" x="112.56" y="45">UB</tspan></tspan></text></g></svg>